HIERARCHY
ROOT root
{
	OFFSET 0.000000 0.000000 0.000000
	CHANNELS 6 Xposition Yposition Zposition Zrotation Yrotation Xrotation
	JOINT lhip
	{
		OFFSET 0.058581 -0.082280 -0.017664
		CHANNELS 3 Zrotation Yrotation Xrotation
		JOINT lknee
		{
			OFFSET 0.043451 -0.386469 0.008037
			CHANNELS 3 Zrotation Yrotation Xrotation
			JOINT lankle
			{
				OFFSET -0.014790 -0.426874 -0.037428
				CHANNELS 3 Zrotation Yrotation Xrotation
				JOINT ltoe
				{
					OFFSET 0.041054 -0.060286 0.122042
					CHANNELS 3 Zrotation Yrotation Xrotation
					End Site
					{
						OFFSET 0.000000 0.000000 0.000000
					}
				}
			}
		}
	}
	JOINT rhip
	{
		OFFSET -0.060310 -0.090513 -0.013543
		CHANNELS 3 Zrotation Yrotation Xrotation
		JOINT rknee
		{
			OFFSET -0.043257 -0.383688 -0.004843
			CHANNELS 3 Zrotation Yrotation Xrotation
			JOINT rankle
			{
				OFFSET 0.019056 -0.420046 -0.034562
				CHANNELS 3 Zrotation Yrotation Xrotation
				JOINT rtoe
				{
					OFFSET -0.034840 -0.062106 0.130323
					CHANNELS 3 Zrotation Yrotation Xrotation
					End Site
					{
						OFFSET 0.000000 0.000000 0.000000
					}
				}
			}
		}
	}
	JOINT lowerback
	{
		OFFSET 0.004439 0.124404 -0.038385
		CHANNELS 3 Zrotation Yrotation Xrotation
		JOINT upperback
		{
			OFFSET 0.004488 0.137956 0.026820
			CHANNELS 3 Zrotation Yrotation Xrotation
			JOINT chest
			{
				OFFSET -0.002265 0.056032 0.002855
				CHANNELS 3 Zrotation Yrotation Xrotation
				JOINT lowerneck
				{
					OFFSET -0.013390 0.211636 -0.033468
					CHANNELS 3 Zrotation Yrotation Xrotation
					JOINT upperneck
					{
						OFFSET 0.010113 0.088937 0.050410
						CHANNELS 3 Zrotation Yrotation Xrotation
						End Site
						{
							OFFSET 0.000000 0.000000 0.000000
						}
					}
				}
				JOINT lclavicle
				{
					OFFSET 0.071702 0.114000 -0.018898
					CHANNELS 3 Zrotation Yrotation Xrotation
					JOINT lshoulder
					{
						OFFSET 0.122921 0.045205 -0.019046
						CHANNELS 3 Zrotation Yrotation Xrotation
						JOINT lelbow
						{
							OFFSET 0.255332 -0.015649 -0.022946
							CHANNELS 3 Zrotation Yrotation Xrotation
							JOINT lwrist
							{
								OFFSET 0.265709 0.012698 -0.007375
								CHANNELS 3 Zrotation Yrotation Xrotation
								End Site
								{
									OFFSET 0.000000 0.000000 0.000000
								}
							}
						}
					}
				}
				JOINT rclavicle
				{
					OFFSET -0.082954 0.112472 -0.023707
					CHANNELS 3 Zrotation Yrotation Xrotation
					JOINT rshoulder
					{
						OFFSET -0.113228 0.046853 -0.008472
						CHANNELS 3 Zrotation Yrotation Xrotation
						JOINT relbow
						{
							OFFSET -0.260127 -0.014369 -0.031269
							CHANNELS 3 Zrotation Yrotation Xrotation
							JOINT rwrist
							{
								OFFSET -0.269108 0.006794 -0.006027
								CHANNELS 3 Zrotation Yrotation Xrotation
								End Site
								{
									OFFSET 0.000000 0.000000 0.000000
								}
							}
						}
					}
				}
			}
		}
	}
}
MOTION
Frames: 17
Frame Time: 0.033333
1.286102 0.721300 0.789225 -91.552563 2.096825 102.226002 11.830564 0.845758 -60.972639 -7.835714 13.106015 78.073289 8.472173 16.643528 -37.455727 0.000000 -0.000000 0.000000 -3.755223 -0.172229 -58.158900 0.124593 -11.882212 77.822942 -1.959578 -13.647326 -39.617005 0.000000 -0.000000 0.000000 0.315636 1.952068 46.361682 -2.447376 0.889602 -11.350654 0.103855 -1.338475 0.878858 2.939803 -2.121584 -29.954637 9.982713 -3.105271 -26.071644 -29.759539 -2.042498 0.782523 -41.922892 3.351432 -4.439573 12.137492 -12.543656 -14.845317 7.705816 3.357079 -2.895736 22.570857 4.939740 5.461007 43.871372 -6.104445 -0.362863 -14.628132 11.283444 -4.842493 -7.514012 -3.523359 13.147424 
1.281460 0.722678 0.789418 -89.197530 1.920353 101.541480 11.858992 -0.661369 -60.628810 -6.674668 12.768582 79.405936 8.515620 14.834219 -37.732727 0.000000 -0.000000 0.000000 -3.428538 0.062907 -57.015143 -2.564065 -12.452171 79.320873 -2.438626 -13.784626 -39.618097 0.000000 -0.000000 0.000000 -0.143055 2.938880 44.628857 -1.985512 0.473901 -9.779312 0.716751 -1.210616 0.989857 3.860311 0.003335 -32.231640 8.972753 -5.214253 -24.407444 -29.569152 -9.710075 0.802145 -48.909341 -5.478247 0.778539 12.777831 -13.990084 -11.644844 6.833144 4.601713 -6.514936 24.042929 13.537256 5.052331 48.464226 8.003568 4.481677 -13.756583 12.469049 -1.600457 -5.029959 -5.259919 10.767327 
1.277112 0.725641 0.798821 -87.203016 1.863469 100.207015 11.620308 -1.187811 -58.275763 -6.619868 11.735515 78.358142 7.628347 12.470479 -37.317309 0.000000 -0.000000 0.000000 -2.643509 0.543891 -54.140888 -3.461855 -11.836333 78.373070 -2.291596 -13.634182 -38.367547 0.000000 -0.000000 0.000000 -0.706380 3.561654 42.868519 -1.323795 0.334016 -8.131014 1.403951 -0.660901 0.383506 3.353174 2.775188 -34.671326 6.379097 -7.883239 -21.011564 -26.742094 -17.026146 0.315228 -51.213196 -11.288358 5.407316 12.872279 -20.999392 -6.514427 3.574646 2.497116 -10.709196 24.772826 22.989942 5.586652 47.021956 24.874404 6.767643 -14.539254 17.525647 -2.211817 -5.263737 -4.229158 9.787163 
1.272124 0.731357 0.817006 -84.910954 1.509141 98.446447 11.033393 -1.022281 -54.313058 -7.715028 10.670825 75.043318 6.843457 9.891214 -35.762861 0.000000 -0.000000 0.000000 -1.971550 -0.386339 -49.885315 -3.300112 -11.504639 75.602109 -1.918649 -12.552158 -36.197374 0.000000 -0.000000 0.000000 -0.921608 3.994232 40.311136 -1.183109 0.707531 -6.659636 1.788566 1.159518 0.431811 2.743375 3.716213 -35.682988 3.296925 -9.760450 -18.250170 -21.331581 -21.499322 -2.971626 -49.642024 -15.940844 8.820169 14.355166 -36.178560 -1.441512 2.383680 1.204009 -12.666570 22.478027 31.874125 3.080226 38.630311 40.690811 3.213195 -14.367397 22.939184 -0.968723 -3.847864 -4.677072 10.307559 
1.265786 0.738146 0.843970 -81.620696 0.758281 96.981804 10.042693 -1.680367 -49.642918 -9.318809 9.619819 68.972767 6.795391 8.589588 -32.133121 0.000000 -0.000000 0.000000 -1.939976 -2.001270 -44.965722 -2.741855 -11.956427 70.579940 -1.281301 -12.434184 -32.481434 0.000000 -0.000000 0.000000 0.158638 4.684562 37.159627 -2.143813 1.768900 -5.497284 1.534501 3.229787 0.259877 3.248639 2.596597 -34.165961 1.959202 -9.974877 -17.189455 -16.491191 -24.377225 -6.994444 -44.423911 -19.730270 11.806980 18.962679 -58.650753 -0.588864 0.380482 -0.499192 -12.976750 15.543933 39.094962 -1.304328 19.366344 47.963887 -9.599520 -16.181862 31.643070 -3.208991 -1.585843 -4.084771 12.374494 
1.253025 0.744398 0.884295 -77.103421 -0.078126 97.050081 9.073761 -2.419830 -44.891389 -11.344789 7.808949 60.232694 7.261672 6.378199 -25.625003 0.000000 -0.000000 0.000000 -0.996516 -4.812963 -39.803846 -2.005219 -11.379492 62.700077 -1.151423 -13.063659 -27.308601 0.000000 -0.000000 0.000000 1.707695 6.035423 32.072646 -3.351317 2.714195 -5.932157 1.542417 4.481277 1.063407 3.146642 -0.196989 -31.095096 2.423088 -8.339359 -17.531157 -5.981299 -24.008847 -13.269578 -43.578935 -24.210301 14.210482 24.172594 -79.914335 -3.918881 -0.913466 -1.700737 -20.127381 -1.252264 40.416408 -10.461720 7.433779 47.348695 -20.696568 -24.471292 39.575513 -14.353141 -2.043090 -2.425665 11.155291 
1.232254 0.746714 0.943992 -70.296919 -0.868945 96.122999 7.209343 -3.839340 -36.521797 -12.869678 3.400849 47.659485 5.698570 3.449876 -15.829148 0.000000 -0.000000 0.000000 -0.233779 -9.642591 -30.390547 -1.444937 -11.700730 49.943836 -0.821104 -12.895187 -18.563804 0.000000 -0.000000 0.000000 3.620421 7.869693 25.881322 -3.572089 2.261135 -4.553503 2.561568 3.359613 1.651388 1.310374 -2.605754 -25.430636 3.597953 -4.541883 -19.091945 6.338722 -21.691106 -17.147680 -46.091955 -25.916193 15.697421 -179.658209 -83.219328 -155.978899 -2.690106 -2.893630 -29.655944 -17.480717 35.469252 -17.048596 4.835518 45.075363 -24.765883 -32.580609 48.219878 -20.257784 -0.423833 -2.264696 9.702701 
1.204836 0.743357 1.020064 -61.886430 -2.165849 94.942944 4.640963 -5.711822 -23.733892 -11.259055 -2.256981 27.209128 -0.805493 -0.470012 2.262157 0.000000 -0.000000 0.000000 -0.670286 -13.523374 -17.458583 -1.435593 -14.870236 31.094745 0.267336 -11.876674 -1.660182 0.000000 -0.000000 0.000000 2.275964 8.668020 17.654374 -1.875060 0.378726 -2.252340 4.364416 2.671000 1.142428 -0.936286 -1.974391 -18.312439 3.811345 -1.223593 -17.622986 14.626271 -18.969637 -16.250234 -51.832433 -25.308159 19.262298 -161.778428 -75.926047 -171.900494 -6.612903 -5.729304 -38.601094 -23.345330 30.815611 -17.836247 11.158357 47.005530 -20.302280 -40.810621 56.147381 -23.952121 3.415095 -2.268109 6.605249 
1.176422 0.737324 1.102485 -52.661884 -3.530140 91.832844 0.525080 -4.015990 -6.124617 -1.001006 -0.076655 -3.837901 -17.998387 1.364428 34.934235 0.000000 -0.000000 0.000000 0.611033 -15.693379 -1.220128 -5.491896 -23.109775 5.509666 7.392225 -9.473233 30.581280 0.000000 -0.000000 0.000000 0.537395 8.396849 13.078884 -1.593049 -2.097981 -0.230448 7.147287 1.637073 -2.106064 -5.803523 -1.289081 -5.790801 4.861096 5.940116 -19.407331 13.947391 -20.298800 -9.913763 -54.672133 -20.125220 19.813209 -150.758248 -73.818021 176.791206 -17.227613 -8.007158 -34.420556 -23.352101 30.649578 -13.619757 21.215043 47.896547 -12.134518 -45.327228 67.352042 -30.801817 -7.206198 1.544679 8.430665 
1.158418 0.727592 1.176833 -43.301023 -4.930542 91.920968 -2.577847 2.278490 -5.041587 2.005795 15.705491 -2.419981 -14.507624 5.982191 32.723454 0.000000 -0.000000 0.000000 2.154138 -16.926512 3.755771 -5.586128 -19.747626 -5.318448 11.600273 -5.742060 39.709216 0.000000 -0.000000 0.000000 -0.781855 6.970259 6.347101 -2.256124 -3.839571 2.670949 6.476037 3.499666 -6.006119 -8.213777 1.698842 2.497531 3.675816 13.473225 -21.760870 8.091136 -20.907352 -4.599872 -56.582525 -16.390215 18.352321 -122.669058 -73.177335 147.177032 -19.013420 -7.860371 -32.188006 -16.851402 30.347854 -4.017087 27.283221 44.087009 -6.613656 -62.845938 79.862760 -45.813719 -13.906979 6.604522 4.509465 
1.157791 0.724729 1.238441 -32.193047 -6.131827 93.159665 -3.003401 -2.179490 -6.480597 -0.528269 9.414288 0.686456 -12.402195 2.588774 38.988238 0.000000 -0.000000 0.000000 2.234541 -13.203623 -2.385012 -2.784220 -12.037514 4.572648 14.375129 -2.337630 44.862663 0.000000 -0.000000 0.000000 -1.256586 7.041829 1.472528 -1.931756 -3.676977 5.159476 4.197136 3.588771 -7.517985 -8.220311 8.786884 -1.931643 1.364978 15.954876 -18.160431 0.320166 -19.731471 -2.956093 -60.309617 -15.215464 21.236291 -87.446874 -74.606992 111.598530 -19.390624 -3.083810 -23.618298 -7.797527 24.081924 0.400432 34.685815 35.502416 3.854485 -145.637423 82.570422 -124.714403 -11.884292 4.712373 -1.828059 
1.150223 0.723107 1.287434 -18.262758 -5.674169 89.240541 -2.626388 0.401162 -3.120966 0.970808 9.193265 -1.394325 -11.773594 4.968871 37.092063 0.000000 -0.000000 0.000000 4.721580 -12.459619 -0.092669 -4.996389 -15.645067 3.025270 11.783980 -6.597019 44.493436 0.000000 -0.000000 0.000000 -1.047582 5.895599 6.376620 -2.626439 -2.935672 2.806959 3.435314 2.500862 -7.006965 -8.759761 12.501931 -7.919017 0.792527 21.392713 -15.878240 -9.410806 -18.435136 -0.568177 -59.266592 -15.917027 22.178953 -60.093587 -68.888279 82.313387 -19.098904 -3.132285 -18.310021 0.098177 15.695032 2.749090 41.400638 21.650064 13.069541 -172.925836 79.096639 -149.905501 -15.547838 5.950771 -3.281056 
1.145017 0.721966 1.324545 -4.199146 -5.800198 87.270961 -1.952722 0.292964 -2.818598 0.562807 9.825507 -1.248216 -11.789466 5.618686 39.079978 0.000000 -0.000000 0.000000 4.252649 -11.596692 -0.184228 -4.303878 -14.110708 0.650787 13.914060 -6.904860 44.377806 0.000000 -0.000000 0.000000 -1.212851 6.228624 9.324350 -3.499193 -2.882996 0.260280 2.664600 0.492902 -5.239403 -10.969599 17.245535 -11.626563 -0.687819 25.406786 -15.591460 -17.270558 -18.477811 1.709470 -57.015609 -17.237915 23.204819 -42.833382 -59.141946 58.615185 -18.664105 -3.922486 -15.817538 7.248962 7.484238 6.059082 44.102898 8.692998 16.449142 173.664074 83.482560 -164.470983 -16.676807 6.946040 -2.570999 
1.139198 0.720163 1.354359 11.904845 -5.423942 86.439024 -1.298744 -0.867844 -5.150794 -0.034942 9.704324 -1.124018 -11.069629 5.215300 38.912515 0.000000 -0.000000 0.000000 2.908228 -10.226875 -2.571285 -3.952241 -13.963157 3.594348 12.737115 -8.793285 44.399220 0.000000 -0.000000 0.000000 -2.353628 6.208144 9.188446 -3.157555 -3.919142 0.834459 2.314258 -1.272937 -5.876247 -11.419063 19.896606 -11.097969 0.696433 28.565516 -14.106469 -22.044236 -22.096305 5.025410 -57.522261 -18.535126 22.644017 -25.661505 -46.651313 42.962861 -20.857599 -0.302495 0.153697 10.008380 3.943648 6.776554 52.990638 -4.603135 16.185473 -17.227856 81.085631 4.663532 -4.508871 2.375036 0.918010 
1.131767 0.717833 1.374102 28.035473 -3.743272 85.592827 -0.637977 -0.819159 -8.260796 0.631556 8.445994 2.039302 -10.107467 4.883043 38.751696 0.000000 -0.000000 0.000000 3.023954 -10.660976 -2.512530 -3.680979 -14.378490 3.108548 12.793817 -8.738020 44.123236 0.000000 -0.000000 0.000000 -3.284214 4.964464 8.360466 -2.188736 -6.755756 2.158914 2.218806 -2.032924 -5.779966 -10.426259 21.697081 -10.311959 2.410058 28.700555 -13.383180 -21.969498 -24.577633 5.296107 -59.732171 -22.645101 23.014722 -19.603588 -28.707306 38.376726 -19.011017 3.101999 8.761990 11.548528 2.986364 8.440827 59.999743 -6.944232 15.047572 -9.497208 58.925645 12.438361 1.317408 -1.404843 2.325637 
1.126258 0.715523 1.381336 40.956090 -1.925149 84.875716 -0.134235 -1.900912 -8.288655 0.507606 8.589050 2.268055 -9.270611 5.832666 38.665662 0.000000 -0.000000 0.000000 3.426635 -10.071293 -2.474191 -3.040764 -13.773635 3.458169 12.351455 -8.681339 43.949954 0.000000 -0.000000 0.000000 -4.066716 4.034913 8.537783 -0.902848 -8.051003 2.480833 2.889310 -2.410872 -5.573333 -9.857106 22.175865 -9.136151 2.980391 28.133323 -12.132371 -22.470480 -25.802296 7.073373 -59.399151 -23.779804 21.877351 -14.704208 -22.280525 34.205344 -19.961313 4.089369 10.668149 14.029372 4.540872 9.834827 61.781088 -6.919037 15.408843 -4.606342 40.856462 19.032076 3.464987 -2.310790 7.610744 
1.121335 0.712729 1.376930 51.179440 -0.311483 84.570940 0.159407 -1.441156 -6.940723 0.601947 8.988320 1.102069 -9.448786 7.414521 39.208555 0.000000 -0.000000 0.000000 4.208305 -8.021004 -2.847574 -3.206846 -13.182345 4.320788 11.949877 -8.667330 43.482001 0.000000 -0.000000 0.000000 -4.401043 3.224153 8.635827 -0.091503 -7.436733 3.209385 3.100671 -2.037497 -5.998704 -8.652430 22.181747 -8.064202 3.838874 25.414861 -10.025537 -22.346404 -25.126522 6.836943 -56.237663 -23.968256 21.620655 -13.781820 -21.205506 31.276297 -18.930462 2.977886 9.941222 17.111494 6.433526 10.568735 62.262523 -7.766577 17.679596 -4.032092 30.420211 17.075291 2.421329 -0.919181 3.073230 
